<?xml version="1.0" encoding="UTF-8"?>
<svg id="Layer_2" data-name="Layer 2" xmlns="http://www.w3.org/2000/svg" viewBox="0 0 517.21 517.21">
  <defs>
    <style>
      .cls-1 {
        fill: #006200;
      }
    </style>
  </defs>
  <g id="Layer_1-2" data-name="Layer 1">
    <path class="cls-1" d="M258.61,0C115.79,0,0,115.79,0,258.61s115.79,258.61,258.61,258.61,258.61-115.79,258.61-258.61S401.42,0,258.61,0ZM302.87,397.97c0,11.81-9.58,21.39-21.39,21.39h-45.75c-11.81,0-21.39-9.58-21.39-21.39v-166.9c0-11.81,9.58-21.39,21.39-21.39h45.75c11.81,0,21.39,9.58,21.39,21.39v166.9ZM258.61,186.38c-24.45,0-44.27-19.82-44.27-44.27s19.82-44.27,44.27-44.27,44.27,19.82,44.27,44.27-19.82,44.27-44.27,44.27Z"/>
  </g>
</svg>