<?xml version="1.0" encoding="UTF-8"?>
<svg id="Layer_2" data-name="Layer 2" xmlns="http://www.w3.org/2000/svg" viewBox="0 0 517.34 531.36">
  <defs>
    <style>
      .cls-1 {
        fill: #006200;
      }
    </style>
  </defs>
  <g id="Layer_1-2" data-name="Layer 1">
    <path class="cls-1" d="M508.61,175.41l-.47-.44L277.14,6.94c-5.13-4.5-11.6-6.94-18.48-6.94s-13.35,2.45-18.48,6.94L9.19,174.97l-.47.44c-7.53,7.57-10.72,18.71-7.46,28.89,3.77,11.77,14.54,19.52,26.7,19.52h47.71c5.85,0,10.58,4.73,10.58,10.58v270.26c0,14.75,11.95,26.7,26.7,26.7h291.41c14.75,0,26.7-11.95,26.7-26.7V234.4c0-5.85,4.73-10.58,10.58-10.58h47.71c12.16,0,22.93-7.76,26.7-19.52,3.26-10.18.07-21.32-7.46-28.89Z"/>
  </g>
</svg>