<?xml version="1.0" encoding="UTF-8"?>
<svg id="Layer_2" data-name="Layer 2" xmlns="http://www.w3.org/2000/svg" viewBox="0 0 532 489.13">
  <defs>
    <style>
      .cls-1 {
        fill: #006200;
      }
    </style>
  </defs>
  <g id="Layer_1-2" data-name="Layer 1">
    <path class="cls-1" d="M517.22,49H89.25c-4.29,0-8.36-1.86-11.17-5.1L44.52,5.13C35.58-5.2,18.6,1.11,18.58,14.78v15.38c.06,16.31,7.05,20.97,14.04,30.29l46.81,53.57c1.43,1.6,1.9,2.11,2.61,4.34.68,2.14,1.13,4.34,1.41,6.57l25.16,177.48-51.05,89.68c-2.81-.5-5.68-.81-8.63-.81-27.02,0-48.93,21.9-48.93,48.93s21.9,48.93,48.93,48.93c21.29,0,39.36-13.63,46.08-32.62h206.65c6.71,18.83,24.64,32.33,45.77,32.33,26.86,0,48.63-21.77,48.63-48.63s-21.77-48.63-48.63-48.63c-21.13,0-39.06,13.5-45.77,32.33H95.01c-2.06-5.81-5.16-11.11-9.11-15.67l51.43-90.36h322.99c6.84,0,12.79-4.7,14.37-11.36l56.9-239.32c2.21-9.28-4.83-18.19-14.37-18.19ZM48.93,463.5c-12.87,0-23.3-10.43-23.3-23.3s10.43-23.3,23.3-23.3,23.3,10.43,23.3,23.3-10.43,23.3-23.3,23.3ZM347.14,416.9c12.87,0,23.3,10.43,23.3,23.3s-10.43,23.3-23.3,23.3-23.3-10.43-23.3-23.3,10.43-23.3,23.3-23.3Z"/>
  </g>
</svg>