<?xml version="1.0" encoding="UTF-8"?>
<svg id="Layer_2" data-name="Layer 2" xmlns="http://www.w3.org/2000/svg" viewBox="0 0 517.35 531.36">
  <defs>
    <style>
      .cls-1 {
        fill: #006200;
      }
    </style>
  </defs>
  <g id="Layer_1-2" data-name="Layer 1">
    <path class="cls-1" d="M508.61,175.42l-.46-.46L277.15,6.95c-5.11-4.5-11.6-6.95-18.47-6.95s-13.36,2.45-18.47,6.95L9.2,174.97l-.46.46c-7.54,7.56-10.73,18.71-7.47,28.87,3.77,11.77,14.54,19.53,26.7,19.53h47.71c5.85,0,10.59,4.74,10.59,10.59v270.26c0,14.74,11.95,26.69,26.69,26.69h291.43c14.74,0,26.69-11.95,26.69-26.69V234.41c0-5.85,4.74-10.59,10.59-10.59h47.71c12.16,0,22.93-7.76,26.7-19.53,3.26-10.17.07-21.32-7.47-28.87ZM449.9,186.55h-45.51c-5.85,0-10.59,4.74-10.59,10.59v296.94H123.54V197.14c0-5.85-4.74-10.59-10.59-10.59h-45.51c-3.4,0-4.82-4.35-2.07-6.35L248.08,47.31c6.32-4.59,14.87-4.59,21.19,0l182.7,132.88c2.75,2,1.34,6.35-2.07,6.35Z"/>
  </g>
</svg>