<?xml version="1.0" encoding="UTF-8"?>
<svg id="Layer_2" data-name="Layer 2" xmlns="http://www.w3.org/2000/svg" viewBox="0 0 517.21 517.21">
  <defs>
    <style>
      .cls-1 {
        fill: #006200;
      }
    </style>
  </defs>
  <g id="Layer_1-2" data-name="Layer 1">
    <g>
      <path class="cls-1" d="M258.61,0C115.78,0,0,115.78,0,258.61s115.78,258.61,258.61,258.61,258.61-115.78,258.61-258.61S401.43,0,258.61,0ZM258.61,468.29c-115.8,0-209.68-93.88-209.68-209.68S142.8,48.93,258.61,48.93s209.68,93.88,209.68,209.68-93.88,209.68-209.68,209.68Z"/>
      <circle class="cls-1" cx="258.61" cy="142.12" r="44.27"/>
      <path class="cls-1" d="M235.73,209.68h45.75c11.81,0,21.39,9.58,21.39,21.39v166.9c0,11.81-9.58,21.39-21.39,21.39h-45.75c-11.81,0-21.39-9.58-21.39-21.39v-166.9c0-11.81,9.58-21.39,21.39-21.39Z"/>
    </g>
  </g>
</svg>