<?xml version="1.0" encoding="UTF-8"?>
<svg id="Layer_2" data-name="Layer 2" xmlns="http://www.w3.org/2000/svg" viewBox="0 0 2114 2114">
  <defs>
    <style>
      .cls-1 {
        fill: #fff;
      }
    </style>
  </defs>
  <g id="Layer_1-2" data-name="Layer 1">
    <g>
      <path class="cls-1" d="M847.25,609.96c12.75,0,29.81-4.98,41.52-9.64,27.55-10.96,27.55-19.5,27.55-22.3,0-10.92-9.44-21.96-27.5-21.96-29.52,0-57.43,18.75-57.43,38.58,0,7.25,6.51,15.32,15.86,15.32Z"/>
      <path class="cls-1" d="M1131.2,1135.1c15.28-14.09,23.69-33.18,23.69-53.76,0-17.55-4.36-31.09-12.96-40.24-8.58-9.13-21.14-13.76-37.33-13.76-33.73,0-53.07,29.17-53.07,80.05,0,38.94,13.66,46.56,37.26,46.56,13.56,0,29.81-7.22,42.41-18.85Z"/>
      <path class="cls-1" d="M1382.03,688.09c22.4,0,38.04-19.97,38.04-48.56,0-42.25-20.36-48.56-32.5-48.56-21.35,0-40.8,26.84-40.8,56.32,0,24.41,14.17,40.8,35.26,40.8Z"/>
      <path class="cls-1" d="M1813.52,0L355,25C189.05,25,0,134.53,0,300.48v1473.04c0,165.95,122.05,267.48,288,267.48l1508,73c165.95,0,288-225.05,288-391l30-1422.52C2114,134.53,1979.47,0,1813.52,0ZM1736.76,510.21c8.93.01,19.54,2.75,19.54,15.72,0,7.1-.66,13.95-1.49,22.63-1.31,13.61-2.94,30.55-2.94,57.72,0,49.84,10.49,79.6,28.06,79.6,20.34,0,32.49-39.29,32.49-105.09,0-33.78-2.53-47.32-4.21-56.28-.8-4.3-1.33-7.14-1.33-10.78,0-6.64,5.32-11.28,12.95-11.28,45.99,0,102.17,27.45,102.17,59.5,0,65.57-27.59,156.25-70.29,231.01-21.79,38.15-46.32,70-70.93,92.1-26.76,24.02-52.77,36.19-77.33,36.19-16.11,0-35.71-11.12-52.42-29.74-15.75-17.55-25.92-38.58-25.92-53.59,0-12.95,7.8-12.95,10.73-12.95,4.42,0,10.21,1.57,16.92,3.38,9.5,2.58,20.28,5.49,32.4,5.49,29.27,0,59.1-21.99,59.1-43.57,0-4.32-2.8-7.87-14.63-22.25-8.38-10.19-20.32-24.69-32.74-42.34-10.91-15.53-22.2-33.5-31.78-53.14-14.1-28.92-24.48-61.45-24.48-95.08,0-15.67,12.12-30.37,28.5-42.01,4.66-3.31,9.68-6.38,14.86-9.15,18.24-9.77,38.5-15.84,52.77-16.09ZM1907.77,1207.34c-4.25,3.87-10.84,3.55-14.71-.71l-28.64-31.6c-2.61-2.88-3.4-6.96-2.05-10.6,6.63-17.93,31.85-40.23,58.53-15.42,22.3,20.74-.05,46.42-13.14,58.34ZM1621,1077c-87,12-136.02,130-136.02,130,0,0-91.98-278-18.98-321s102,79,102,79c134-20,140,100,53,112ZM1584.33,384.58c20.95-12.07,46.53-19.57,66.75-19.57,13.51,0,29.02,3.99,29.02,35.12,0,21.89-2.85,50.7-6.15,84.06-1.05,10.63-2.16,21.85-3.24,33.58-.56.33-1.12.67-1.67,1.01-27.35,16.74-42.41,37.58-42.41,58.68,0,58.82,29.21,113.57,56.74,153.32.04.62.06,1.23.06,1.85,0,6.94-6.24,18.99-23.83,30.11-18.67,11.81-43.94,18.31-71.14,18.31-20.18,0-29.58-8.52-29.58-26.81,0-16.48,2.05-36.66,4.42-60.04,3.12-30.82,6.67-65.76,6.67-103.44,0-51.25-7.3-94.64-12.63-126.32-3.17-18.78-5.66-33.62-5.66-43.81s12.51-24.44,32.65-36.05ZM1279.31,538.56c22.6-20.85,49.45-32.23,72.24-32.23s37.78,6.57,47.59,10.92c5.28,2.35,9.1,4.04,12.82,4.04,4.6,0,15.31-2.09,15.31-21.41,0-22.62-6.71-44.42-12.09-61.95-3.92-12.74-7.31-23.75-7.31-31.7,0-3.7,8.52-13.8,31.38-25.19,20.22-10.07,42.79-16.58,57.5-16.58,23.52,0,34,12.03,34,38.99,0,25.28-3.86,60.72-7.96,98.24-4.84,44.34-10.32,94.59-10.32,137.29s10.89,57.03,18.84,68.78c4.49,6.64,6.65,10.06,6.65,15.45,0,15.74-48.98,52.85-82.78,52.85-9.47,0-14.24-6.4-19.29-13.18-4.3-5.77-9.18-12.31-17.28-12.31-5.24,0-9.98,2.71-16.54,6.46-12.85,7.36-32.26,18.48-70.47,18.48-21.66,0-40.77-8.11-56.38-21.23,3.97-5.18,6.03-10.6,6.03-16.11,0-7.06-1.59-12.19-3.44-18.13-2.99-9.62-7.09-22.79-7.09-55.02,0-13.23,2.9-24.28,6.26-37.08,4.08-15.56,8.7-33.19,8.7-58.23,0-11.36-2.21-21.82-6.37-31.15ZM1068.27,1424.34c2.99,11.14,5.58,20.75,5.58,30.91,0,21.15-84.78,54.81-155.27,54.81-21.67,0-38.28-20.78-49.38-61.77-.72-2.66-1.42-5.42-2.09-8.26-1.48-6.23-2.85-12.89-4.11-19.97h0c-6.91-38.9-10.4-90.38-10.4-153.63,0-106.01,7.9-196.1,21.72-259.65,1.18-5.43,2.41-10.67,3.67-15.7,10.78-42.88,24.61-71.23,40.73-80.96,55.13-33.08,119.58-49.16,197.05-49.16,154.88,0,247.35,74.39,247.35,198.99,0,53.85-16.94,100.98-50.33,140.08-25.05,29.32-50.5,42.89-50.75,43.01l-17.75,9.27,19.47,4.68c.21.04,21.3,5.87,45.92,38.97,10.64,14.63,18.52,30.39,26.14,45.62,13.65,27.28,25.43,50.83,48.4,57.59,9.36,2.88,12.38,4.9,12.38,17.94,0,17.86-18.93,38.09-50.64,54.12-31.99,16.16-71.79,25.81-106.49,25.81-49.75,0-60.61-29.5-77.04-74.15-5.37-14.59-10.93-29.67-18.53-45.34-18.73-38.36-29.78-48.86-51.39-48.86-7.39,0-16.58,0-23.42,5.09-9.07,6.74-10.12,19.47-10.12,28.46,0,27.59,5.15,46.73,9.3,62.1ZM850.89,1436.38c-37.56,45.98-89.06,69.26-153.33,69.26s-119.5-29.82-156.64-86.23c-24.98-37.96-41.72-87.36-48.82-142.86,13.28.51,26.23.91,37.04.91,42.91,0,48.42-51.81,48.42-96.95,0-64.9-34.44-94.09-58.89-94.09-3.98,0-9.73,1.07-16.7,2.84,5.35-18.12,12.1-30.67,19.9-36.07.95-.66,1.94-1.32,2.98-1.99.06.01.11.01.17.02,15.63,1.41,29.12,2.62,38.38,2.62,8.76,0,21.45-1.15,30.53-11.14,5.39-5.93,8.8-14.32,10.31-25.43,17.3-5.18,33.05-8.48,43.17-8.48,26.08,0,30.85,9.4,30.85,27.91,0,7.03-1.9,21.6-4.29,40.03-4.76,36.56-11.94,91.81-11.94,147.3,0,49.23,4.23,86.47,12.58,110.68,9.9,28.71,24.36,34.74,34.75,34.74s24.65-5.5,34.07-31.7c6.84-19.03,10.3-46.38,10.3-81.27,0-96.42-11.19-143.45-18.6-174.57-3.33-13.98-5.73-24.09-5.73-33.41,0-10.31,15.99-23.56,41.73-34.6,24.63-10.55,54.93-17.64,75.41-17.64,3.08,0,8.03.47,14.02,2.74-2.31,10.22-4.47,21.17-6.46,32.83-10.79,63.1-16.5,144.22-16.5,234.6,0,72.74,4.36,128.6,13.29,169.95ZM1053.14,512.98c22.12,0,29.4,16.34,35.47,34.56l4.33,12.99,8-11.12c10.36-14.42,46.18-44.19,90.74-44.19,32.61,0,57.47,11.39,70.31,30.73,2.77,4.18,4.98,8.73,6.58,13.62,2.05,6.19,3.11,12.93,3.11,20.14,0,23.23-4.19,39.22-8.25,54.67-3.45,13.17-6.71,25.6-6.71,40.64,0,34.35,4.46,48.7,7.72,59.18,1.69,5.44,2.81,9.04,2.81,13.97,0,2.03-.77,4.16-2.2,6.33-2.1,3.2-5.65,6.48-10.32,9.66-16.96,11.59-48.77,21.9-80.23,21.9-21.6,0-31.24-8.61-31.24-27.91,0-16.7,4.53-37.25,9.32-59.01,4.95-22.51,10.08-45.79,10.08-65.68,0-9,0-36.37-23.63-36.37-21.61,0-45.79,27.17-45.79,63.52,0,38.63-.51,75.2-6.68,98.07-5.57,20.63-14.77,29.04-31.76,29.04s-38.18-4.47-54.7-11.67c-5.72-2.5-10.66-5.22-14.65-8.03,20.8-14.02,33.39-30.45,33.39-43.68,0-19.03-17.95-44.61-36.32-55.76-.12-7.35-.79-14.55-1.81-21.55,21.64-11.75,32.59-27.65,32.59-47.37,0-22.81-6.98-43.91-19.96-61.14,19.03-9.6,41.87-15.54,59.8-15.54ZM884.38,496.35c36.56,0,66.74,10.61,86.99,28.96,3.54,3.19,6.78,6.64,9.7,10.3,11.74,14.77,18.23,33.13,18.23,54.05,0,14.31-8.45,24.77-21.25,32.68-3.94,2.44-8.29,4.63-12.93,6.63-19.77,8.48-44.85,13.28-66.01,17.33-32.1,6.14-53.31,10.2-53.31,24.82,0,6.58,3.26,28.06,45.24,28.06,24.86,0,44.1-13.05,58.14-22.58,6.76-4.58,13.75-9.32,17.49-9.56.59.07,1.21.19,1.83.36,4.17,1.08,9.02,4.07,13.8,8.2,11.49,9.9,22.54,26.38,22.54,38.74,0,7.53-10.05,21.08-29.32,33.52-1.51.99-3.08,1.96-4.71,2.92-2.14,1.26-4.61,2.65-7.41,4.09-16.76,8.66-45.1,19.53-81.79,19.53-51.13,0-92.9-20.23-117.86-53.72-9.11-12.21-15.97-26.19-20.24-41.59-3.33-12.01-5.08-24.88-5.08-38.45,0-17,2.54-33.05,7.3-47.84,4.89-15.24,12.15-29.14,21.4-41.34,25.94-34.19,67.6-55.11,117.25-55.11ZM756.02,527.59c0,4.76-.84,10.9-2.12,18.3-19.14,26.52-29.47,59.36-29.47,94.75,0,32.61,8.91,61.72,25.99,85.65,1.33,9.27,2.28,17.98,2.28,25.74,0,16.43-14.17,26.25-37.89,26.25-46.77,0-84.44-19.21-84.44-35.12,0-8.2,2.18-21.11,4.71-36.06,3.58-21.18,8.04-47.52,8.04-72,0-2.95-.07-5.79-.21-8.54,9.25-3.93,18.14-9.27,26.17-15.83,18.54-15.15,29.17-33.94,29.17-51.55,0-15.09-7.6-33.2-19.94-47.7,15.02-4.9,31.86-7.92,48.14-7.92,13.49,0,29.57,4.16,29.57,24.03ZM684.88,355.59c33.37,0,59.5,25.16,59.5,57.29s-25.58,56.17-59.5,56.17-58.94-24.15-58.94-56.17,25.89-57.29,58.94-57.29ZM534.37,516.94c3.81,5.13,7.75,10.44,14.46,10.44,4.53,0,9.24-3.08,17.04-8.19,13.2-8.65,33.15-21.73,56.11-21.73,11.14,0,21.41,3.68,30.27,9.49,4.36,2.85,8.38,6.22,11.98,9.91,12.45,12.75,20.02,29.4,20.02,42.32,0,18.54-18.18,40.81-42.71,52.7-4.31,2.09-8.81,3.86-13.45,5.22-6.98,2.08-14.27,3.24-21.63,3.24-11.84,0-11.84-7.24-11.84-9.63,0-29.23-14.46-33.6-23.07-33.6-10.09,0-20.86,6.65-20.86,25.29,0,22.21,2.93,42.51,6.02,63.99,3.31,22.96,6.73,46.69,6.73,74.55s-14.01,42.33-38.44,42.33c-22.58,0-45.88-4.33-63.95-11.86-16.65-6.95-26.59-15.85-26.59-23.82s1.16-18.39,2.39-29.04c1.28-11.06,2.6-22.5,2.6-32.47,0-46.03-4.06-72.86-8.88-90.34,9.42.35,18.51.61,26.23.61,35.02,0,39.51-41.73,39.51-78.08,0-3.81-.15-7.46-.43-10.97,8.1-2.08,14.84-3.19,19.14-3.19,9.82,0,14.66,6.52,19.35,12.83ZM173.94,302.41c1.29-3.92,12.52-13.77,46.27-23.63,27.13-7.93,58.97-12.86,83.1-12.86,115.61,0,149.13,6.63,156.83,12.2,28.03,21.85,44.1,57.84,44.1,98.76,0,25.69-9.16,27.78-20.22,27.78-6.77,0-17.23-.94-29.33-2.03-16.95-1.53-36.16-3.26-53.85-3.26-28.16,0-53.8,1.68-58.22,22.01-2.8,10.83-5.48,41.35,4.31,54.05,3.82,4.95,8.4,5.99,11.57,5.99,7.23,0,21.87-4.66,45.12-12.34,17.03-5.62,38.22-12.61,44.86-12.61,8.79,0,26.26,10.69,31.97,40.7.82,4.32,1.4,9.04,1.68,14.18.12,2.23.18,4.53.18,6.92,0,56.79-13.63,64.08-25.51,64.08-8.92,0-19.84-.36-30.96-.79-3.21-.13-6.45-.26-9.66-.39-1.96-.08-3.9-.16-5.81-.23-11.8-.47-22.78-.86-31.45-.86-23.54,0-34.98,12.18-34.98,37.24,0,52.78,12.45,77.3,20.68,93.53,3.36,6.61,5.79,11.39,5.79,15.35,0,5.34-11.04,17.71-41.45,29.89-28.6,11.47-63.63,18.31-93.7,18.31-28.13,0-35.32-9.42-41.67-32-2.92-10.03-28.46-102.77-28.46-267.23,0-54.66,3.95-153.57,8.81-172.76ZM171.91,908.49c2.32-7.35,21.45-19.63,59.11-30.63,34.26-10.02,74.47-16.24,104.95-16.24,145.92,0,188.33,8.48,198.17,15.62,35.6,27.73,56.01,73.41,56.01,125.33,0,1.19-.02,2.34-.05,3.46-.18,6.8-.92,12.19-2.11,16.48-4.11,14.8-13.64,16.33-24.59,16.33-3.91,0-8.79-.25-14.38-.65-6.67-.47-14.35-1.17-22.65-1.91-1.69-.15-3.39-.31-5.11-.46-20.01-1.79-42.11-3.64-62.54-3.64-22.81,0-36.37,1.14-46.79,3.95-14.28,3.84-22.77,11.49-25.21,22.75-4.11,15.81-5.93,52.49,5.19,66.92,4.48,5.8,9.83,7.02,13.52,7.02,8.91,0,27.24-5.84,56.38-15.46,6.27-2.07,12.97-4.28,19.55-6.38,5.69-1.82,11.28-3.55,16.39-5.03,9.29-2.68,17.01-4.53,20.92-4.53,13.75,0,43.89,19.92,43.89,79.09,0,72.64-17.86,81.95-33.42,81.95-11.17,0-24.8-.45-38.72-.98-4.14-.16-8.31-.32-12.45-.49-.89-.04-1.78-.07-2.67-.11-16.59-.67-32.15-1.27-44.17-1.27-38.28,0-42.71,26-42.71,45.56,0,66.11,15.58,96.81,25.89,117.12,4.3,8.48,7.41,14.61,7.41,19.91,0,8.48-16.58,24.25-52.98,38.83-36.14,14.49-80.41,23.13-118.41,23.13-36.03,0-45.68-12.69-53.7-41.21-3.67-12.65-35.86-129.51-35.86-336.68,0-68.89,4.98-193.62,11.14-217.78ZM1938.62,1327c-42.5,19-42.5-15-51.36-6-6.2,32,44.28,22,44.28,22,0,0,43.39,37-32.76,221-76.16,184-219.61,318-347.13,358-127.52,40-696.9,40-851.87-27s-276.78-121-363.95-129c-56.59-5.19-69.96,3-102.72,15s-87.2,68.23-87.11,17c.01-8,9-38,26.89-56,42.94-43.19,54.42-57.29,243.52-95,205.59-41,336.5,4,336.5,4,0,0,26.31,33.77,37.8,48.94.77,1,1.54,2.03,2.32,3.09.03.04.06.09.09.13.02.02.03.04.05.07,23.75,32.16,55.29,90.85,60.69,103.78,7.08,17,41.62,22,52.24,15,10.63-7,4.43-13,1.77-20-2.66-7-33.65,1-37.2-22-3.54-23-53.13-100-70.83-113-17.71-13-21.26-62,12.4-67,33.65-5,92.98,126,100.06,134,7.09,8,23.03,6,27.46-14,4.42-20,28.33-52,56.99-53.91,28.66-1.92,50.16,12.91,76.72,46.91,26.56,34,15.02,61.38,26.56,62,18.6,1,16.83-17,16.83-17,0,0,196.58,21,239.1,23,42.5,2,71.73-20,85.89-25,14.17-5,29.22-62-28.33-25-49.86,32.05-239.27,7.07-289.04-.18h0s0,0,0,0c-7.68-1.12-12.04-1.82-12.04-1.82-.02-.1-.04-.19-.06-.28l-4.12-.72c-1.48-19.8-23.2-47.12-41.19-61.69-4.58-2.76-9.58-5.85-15.07-9.31-17.66-11.14-57.23-14-79.53-4-22.68,10.17-39.9,40.98-53.35,39-6.79-1-31.04-38-32.01-41-14.55-18,125.26-27,125.26-27,0,0,270.97,30,331.18,26,60.22-4,123.98-46,123.98-46,43.39,78,65.53,90,89.44,95,23.91,5,70.84-24,103.61-49,32.76-25,43.38-89,9.74-49-33.65,40-80.41,82.76-112.46,75-24.79-6-77.92-77-79.69-105-1.78-28,38.41-23.51,51.36-20,22.13,6,50.48,46,59.33,48s12.4-7,11.51-16c-.89-9-24.8-33-24.8-33,49.59-36,72.62-73,79.7-121,7.09-48-38.08-76-68.19-117-22.07-30.05-17.01-89.64,3.29-122.08,5.63,14.95,21.23,50.09,48.07,64.08,34.54,18,65.53,2,66.42-12,.54-8.62,1.75-23.68-18.07-38.66-.02-.01-.04-.03-.06-.04-2.46-1.86-5.25-3.71-8.39-5.55l-47.08-31.12c24.98-.62,21.49,12.47,88.65-27.63,77.04-46,116-1,131.06,29s65.46,68.3,54.9,70c-6.2,1-20.36-7-14.16,4,4.04,7.16,22.13,4,46.93,17,24.8,13,18.67,59.66,0,68Z"/>
      <path class="cls-1" d="M1775.69,1209c-11.51,10-21.26,23-15.95,47,4.71,21.3,78.82,25,77.04-18-1.77-43-49.59-39-61.1-29Z"/>
    </g>
  </g>
</svg>